PathFileType	4	(X/Y/Z)	C:/Users/beibeiliu/ov580/test_trc/User3\sequence.39_training_dense_right.trc
DataRate	CameraRate	NumFrames	NumMarkers	Units	OrigDataRate	OrigDataStartFrame	OrigNumFrames
120	120	16	19	mm	120	1	92
Frame#	Time	ThumbCMC			ThumbMCP			ThumbIP			ThumbTip			IndexMCP			IndexPIP			IndexTip			MiddleMCP			MiddlePIP			MiddleTip			RingMCP			RingPIP			RingTip			PinkyMCP			PinkyPIP			PinkyTip			BackHand1			BackHand2			BackHand3	
		X0	Y0	Z0	X1	Y1	Z1	X2	Y2	Z2	X3	Y3	Z3	X4	Y4	Z4	X5	Y5	Z5	X6	Y6	Z6	X7	Y7	Z7	X8	Y8	Z8	X9	Y9	Z9	X10	Y10	Z10	X11	Y11	Z11	X12	Y12	Z12	X13	Y13	Z13	X14	Y14	Z14	X15	Y15	Z15	X16	Y16	Z16	X17	Y17	Z17	X18	Y18	Z18	
0	0	80.5438	-9.93843	-1.63005	65.2952	-27.8245	-33.9215	86.2086	-39.227	-59.0158	113.913	-41.0423	-57.7827	81.8931	-1.7274	-79.465	78.8688	-7.51954	-107.653	74.6356	-8.55489	-128.383	102.027	-2.55919	-89.3986	93.0929	-7.1889	-114.022	90.0461	-11.3358	-144.623	116.33	-9.3317	-84.0313	112.042	-12.0453	-107.872	110.692	-14.5251	-134.449	132.354	-15.7621	-69.7343	130.066	-17.4727	-91.4064	129.353	-17.8791	-111.755	128.054	7.48478	-36.2617	133.745	16.1776	-6.95612	99.1074	16.4667	-16.7708	
1	0.00833333	69.7161	-16.8951	-2.42081	58.6411	-34.958	-26.0321	78.5998	-46.5852	-53.9445	103.857	-51.9645	-56.8248	69.4846	-12.8537	-75.7104	63.5025	-17.4482	-103.385	64.3286	-22.7177	-127.488	85.8123	-12.9632	-85.0378	78.2478	-20.0844	-114.403	74.659	-24.7972	-142.475	101.154	-19.0259	-83.1476	103.856	-23.7676	-103.057	95.372	-26.9931	-130.153	120.969	-24.4487	-66.7993	117.965	-27.0174	-90.283	111.582	-29.1423	-110.797	116.723	0.4924	-35.1815	123.772	10.297	-7.17634	87.4416	10.116	-18.219	
2	0.0166667	63.3484	-20.597	5.91182	53.9569	-39.4752	-23.8471	70.2432	-53.0816	-50.7981	96.862	-54.4462	-52.116	62.4509	-18.5943	-73.0879	54.7945	-23.3253	-96.4432	56.4903	-29.1395	-120.979	77.1193	-20.0511	-87.2687	69.6919	-26.6213	-110.767	65.8037	-32.6091	-140.544	96.644	-25.0932	-80.1458	91.7411	-30.0898	-99.2879	87.5925	-35.204	-126.278	112.922	-28.5676	-65.8768	111.075	-33.833	-85.5012	105.446	-34.938	-104.866	110.694	-4.22769	-34.9316	120.172	6.31367	-9.50499	83.4961	6.48403	-15.3521	
3	0.025	59.0305	-22.11	5.01873	47.5225	-42.4622	-20.6581	67.2874	-55.0931	-48.9641	94.3432	-59.3583	-51.0889	57.0792	-19.8932	-69.4719	51.4361	-26.8712	-98.4165	53.768	-32.2394	-120.338	78.2674	-22.3495	-83.997	69.968	-29.7035	-110.311	64.7301	-35.7322	-136.885	91.282	-26.8525	-79.3762	88.326	-32.6666	-101.765	82.1836	-38.8369	-124.73	109.9	-32.3333	-62.7526	106.938	-37.2652	-80.9524	101.335	-38.5634	-106.599	105.413	-5.23403	-33.1576	116.971	2.0961	-4.5263	76.807	3.07716	-16.0543	
4	0.0333333	56.8033	-23.3186	4.8687	47.3948	-43.3036	-19.9151	64.3587	-57.3324	-47.1371	93.1139	-61.0857	-48.8682	57.8993	-23.0106	-72.1238	50.3834	-28.0255	-94.2065	52.8584	-35.234	-118.011	73.5237	-23.4967	-78.8122	66.7651	-32.5409	-108.426	60.8236	-36.657	-133.382	91.2848	-30.2898	-73.0971	84.2798	-35.8886	-100.162	80.8247	-40.9689	-124.987	111.299	-36.7166	-60.0326	103.963	-40.1657	-83.9244	99.8359	-43.002	-105.174	106.11	-8.50269	-28.9018	119.225	0.508157	-4.59163	82.3179	0.841297	-12.4567	
5	0.0416667	58.0357	-24.9173	4.15908	49.6167	-43.2339	-19.1653	63.1365	-57.8803	-42.2343	89.908	-62.7569	-47.4748	55.8843	-24.2463	-70.1834	55.4752	-31.1799	-96.0331	48.0715	-35.328	-120.908	76.9533	-25.6154	-79.0307	70.9959	-33.0301	-105.052	61.7246	-38.043	-131.194	90.3122	-31.8633	-75.6285	89.43	-36.9	-97.3708	81.1407	-42.862	-119.91	111.634	-38.2008	-63.0107	104.955	-41.5863	-79.2948	101.984	-43.4863	-106.247	110.408	-12.2647	-31.488	116.597	-2.57644	-5.72061	81.9651	-1.45581	-15.6972	
6	0.05	61.1093	-24.9097	4.89102	46.9876	-43.4077	-20.063	63.1059	-59.301	-47.4701	91.3736	-65.592	-49.9058	58.6828	-23.909	-70.4538	51.9572	-29.3025	-96.6741	54.9775	-35.5889	-119.549	75.5629	-24.593	-79.6255	70.1037	-32.5459	-104.694	63.5993	-38.2888	-133.394	95.7643	-32.0036	-76.3466	91.9384	-37.3672	-97.469	86.3432	-42.8116	-120.642	111.736	-38.2501	-58.5795	108.771	-43.0825	-82.6886	102.816	-45.0688	-106.234	108.927	-10.0995	-27.9655	115.885	-2.19891	-2.49868	81.0781	-1.35165	-14.2425	
7	0.0583333	60.3325	-24.2913	8.51618	47.6129	-43.2119	-20.7821	63.5303	-58.7164	-46.2741	93.3276	-63.9763	-50.299	57.2805	-22.6869	-71.6745	55.4374	-30.9963	-98.7601	53.2216	-35.3183	-122.91	77.644	-26.1333	-82.1282	70.5064	-33.2934	-106.97	66.2988	-39.7233	-138.576	96.5296	-33.1862	-77.5377	93.0938	-37.9908	-99.4651	84.3514	-41.8477	-120.51	113.074	-37.8851	-58.1289	107.991	-41.8615	-78.8035	105.347	-43.5279	-104.464	107.787	-9.89429	-32.8677	117.331	-0.831429	-1.77826	79.839	0.84079	-11.9671	
8	0.0666667	62.6668	-24.1703	2.20543	47.6396	-43.3139	-21.3218	63.431	-57.7283	-44.4434	91.1132	-65.2717	-50.3265	59.6531	-23.7139	-73.729	54.682	-29.0918	-98.471	54.8945	-34.7323	-119.32	79.1106	-25.411	-82.1581	71.5137	-34.156	-110.32	65.0048	-39.5028	-133.26	95.0098	-31.0671	-74.0353	91.1159	-37.2556	-96.8453	86.0044	-42.2682	-124.814	113.636	-37.8681	-61.3508	106.14	-42.5237	-81.7176	107.624	-45.7299	-103.105	112.775	-10.4031	-33.1029	120.257	-2.67205	-6.15415	83.9182	-0.100357	-12.7937	
9	0.075	61.3094	-22.7673	6.93985	48.8317	-43.8189	-21.7931	63.5031	-58.4224	-45.5021	93.4963	-64.3852	-50.8709	62.8237	-23.734	-73.5927	54.0835	-29.0454	-95.0527	54.7468	-36.5952	-122.079	76.4894	-25.1096	-84.207	72.0163	-34.2806	-109.918	64.8999	-39.32	-134.01	96.851	-31.7579	-74.3043	91.0524	-37.4125	-96.4511	85.8257	-42.6131	-122.599	116.246	-39.1685	-62.3489	108.572	-43.1147	-81.4796	104	-43.7917	-102.365	109.028	-11.9018	-29.0923	120.613	-4.2716	-6.8319	87.0079	1.17305	-13.0087	
10	0.0833333	64.4891	-23.3767	3.9162	49.1476	-43.492	-24.0427	64.669	-60.6959	-47.6751	95.3275	-64.4023	-48.9424	61.6385	-22.961	-69.7156	55.2813	-30.329	-98.7304	59.0393	-36.2607	-119.262	80.0871	-27.0827	-83.1063	76.4725	-34.0159	-106.301	68.3773	-41.0278	-134.33	98.148	-33.4065	-77.7238	93.258	-38.0534	-97.2504	87.5247	-43.4548	-122.095	117.186	-40.9532	-62.2365	108.953	-44.1239	-80.6208	104.352	-44.3985	-104.969	110.68	-11.8835	-27.3684	121.215	-2.13315	-2.98588	86.5938	-1.56954	-11.5697	
11	0.0916667	63.6161	-23.7001	8.25482	52.0665	-41.0529	-20.4357	68.3361	-58.5093	-48.6894	97.2577	-64.3624	-50.1565	60.5114	-23.626	-72.25	58.3308	-30.2724	-98.0106	57.3445	-36.5562	-122.037	78.6833	-25.8591	-79.6655	75.1645	-33.7252	-107.644	65.987	-39.0652	-134.541	98.0797	-32.9336	-76.7897	94.6869	-38.8967	-97.1597	86.4593	-44.2395	-123.704	111.598	-39.6378	-62.9077	109.165	-44.0148	-83.5841	106.998	-45.532	-103.969	112.178	-13.3306	-32.6672	120.5	-3.56189	-4.06601	82.285	-1.68906	-14.9188	
12	0.1	61.1479	-22.1267	7.15112	51.288	-40.2041	-21.169	64.7558	-56.8644	-44.3472	92.1362	-63.5834	-49.9369	60.4912	-22.0014	-74.7697	59.0261	-29.6878	-97.6631	54.83	-33.9917	-117.967	77.9568	-25.3799	-84.5439	76.6506	-34.9316	-109.972	69.1231	-40.2621	-135.158	96.808	-32.4722	-77.4984	95.4658	-38.8877	-100.595	85.8504	-42.2968	-123.09	114.66	-38.7993	-63.424	108.416	-43.2262	-81.3619	104.518	-44.9175	-102.82	111.287	-10.0285	-31.4926	120.163	-3.85428	-4.39218	84.0509	2.09423	-12.1692	
13	0.108333	64.7668	-22.2861	3.93709	50.7976	-40.7827	-21.7605	66.0439	-55.0809	-44.9703	90.3214	-64.2117	-49.6146	64.0482	-22.9463	-71.4661	60.3735	-29.2313	-97.2705	56.786	-34.3864	-123.354	83.6908	-25.4893	-80.8947	77.0893	-33.3406	-105.964	69.7063	-40.0233	-137.589	99.3375	-33.5038	-78.8691	90.7248	-37.7316	-96.7277	89.2169	-42.5877	-119.935	117.489	-39.4827	-60.7062	109.863	-44.3423	-83.3261	104.806	-44.8908	-99.8929	111.525	-10.372	-28.0328	120.274	-3.61091	-5.44286	83.5419	2.62031	-12.0116	
14	0.116667	62.3763	-23.3117	4.15575	47.439	-43.186	-21.2632	65.0057	-57.1997	-45.3837	95.7319	-63.4415	-49.9772	61.4203	-22.9306	-75.2245	59.876	-31.3957	-99.4265	55.331	-35.3597	-120.718	78.3739	-26.3847	-81.7604	77.0375	-34.3463	-105.217	68.0863	-40.7861	-136.109	99.9209	-34.275	-77.2109	92.7403	-38.9804	-100.733	86.512	-43.735	-124.311	115.545	-40.4744	-60.0336	113.703	-44.5025	-80.8364	105.632	-46.1948	-104.255	113.903	-12.6111	-29.8302	118.444	-2.59579	-3.43163	82.9717	-1.20705	-15.1478	
15	0.125	60.431	-22.6302	3.59883	49.4232	-42.7901	-21.3424	63.8087	-58.7605	-45.7541	91.921	-64.6165	-48.6166	60.9605	-22.91	-74.3426	57.0121	-31.2374	-99.8216	54.4023	-35.5887	-121.458	79.3936	-27.4504	-84.006	72.1529	-34.5332	-108.8	66.4956	-39.9351	-134.454	95.1125	-33.4598	-77.0416	96.7431	-39.1565	-97.1453	89.4308	-44.7146	-123.398	115.731	-40.7101	-60.9307	112.307	-45.6914	-80.7781	106.046	-46.8483	-102.597	115.554	-11.865	-29.4059	121.999	-3.71418	-6.23663	84.2084	-0.715734	-12.0331	
